<svg width="22" height="16" viewBox="0 0 22 16" fill="none" xmlns="http://www.w3.org/2000/svg">
<path fill-rule="evenodd" clip-rule="evenodd" d="M20.6345 1.32426C21.0027 1.32426 21.3012 1.02578 21.3012 0.657592C21.3012 0.289402 21.0027 -0.00907465 20.6345 -0.00907449L1.54517 -0.00907613C1.17698 -0.00907651 0.878501 0.289401 0.878501 0.65759C0.878501 1.02578 1.17698 1.32426 1.54517 1.32426L20.6345 1.32426ZM0.878498 7.65808C0.878498 7.28989 1.17698 6.99141 1.54517 6.99141L20.6345 6.99141C21.0027 6.99141 21.3012 7.28989 21.3012 7.65808C21.3012 8.02627 21.0027 8.32475 20.6345 8.32475L1.54517 8.32475C1.17698 8.32475 0.878499 8.02627 0.878498 7.65808ZM0.878499 14.6581C0.878498 14.2899 1.17698 13.9914 1.54517 13.9914L20.6345 13.9914C21.0027 13.9914 21.3012 14.2899 21.3012 14.6581C21.3012 15.0263 21.0027 15.3247 20.6345 15.3247H1.54516C1.17698 15.3247 0.878499 15.0263 0.878499 14.6581Z" fill="#193E47"/>
</svg>
