<svg width="21" height="21" viewBox="0 0 21 21" fill="none" xmlns="http://www.w3.org/2000/svg">
<path d="M5.63184 6.31953C5.63184 3.47987 7.93386 1.17784 10.7735 1.17784C13.6132 1.17784 15.9152 3.47987 15.9152 6.31953C15.9152 9.15918 13.6132 11.4612 10.7735 11.4612C7.93386 11.4612 5.63184 9.15918 5.63184 6.31953Z" stroke="#193E47" stroke-width="1.33" stroke-miterlimit="10" stroke-linecap="round" stroke-linejoin="round"/>
<path d="M16.6426 12.6261C17.5789 13.0422 18.3279 13.5346 18.8957 14.0334C19.7612 14.7939 20.2539 15.8926 20.2539 17.0448V18.531C20.2539 19.4184 19.5346 20.1378 18.6471 20.1378H2.90072C2.01334 20.1378 1.29395 19.4184 1.29395 18.531V17.0448C1.29395 15.8926 1.78662 14.7939 2.65219 14.0334C4.11773 12.7458 6.79057 11.4612 10.7739 11.4612" stroke="#193E47" stroke-width="1.33" stroke-miterlimit="10" stroke-linecap="round"/>
</svg>
