<svg width="467" height="259" viewBox="0 0 467 259" fill="none" xmlns="http://www.w3.org/2000/svg">
<path d="M164.63 2.78944H202.056V188.733H164.63V64.9115L194.706 34.8486H164.63V2.78944ZM113.941 85.2896C105.491 81.7263 94.3618 78.3969 80.5624 75.2803C71.436 72.8373 64.4316 70.8305 59.5351 69.274C54.6386 67.4976 50.5239 65.1628 47.1805 62.2661C43.8406 59.3798 42.1793 55.5967 42.1793 50.9236C42.1793 44.6974 44.7375 39.8044 49.8573 36.2411C54.9772 32.6778 61.7652 30.9014 70.218 30.9014C80.0109 30.9014 87.9123 33.2362 93.9186 37.9093C99.9249 42.3591 103.596 48.6935 104.93 56.9264H141.979C140.87 45.3605 137.306 35.3512 131.297 26.9054C125.29 18.2362 117.061 11.6715 106.601 7.22174C96.1417 2.77897 83.9058 0.559326 69.8899 0.559326C57.4306 0.559326 46.1893 2.77897 36.1835 7.22872C26.3905 11.6785 18.8277 17.9046 13.488 25.9072C8.14829 33.6864 5.48193 42.4743 5.48193 52.2602C5.48193 64.2693 8.36816 73.8354 14.1546 80.9516C20.1609 87.8443 27.1758 92.9606 35.1819 96.3006C43.4113 99.6405 54.0907 102.97 67.2166 106.31C76.7862 108.976 84.2338 111.311 89.577 113.318C95.1401 115.094 99.6981 117.768 103.261 121.32C106.825 124.66 108.601 128.995 108.601 134.335C108.601 142.114 105.715 148.235 99.9284 152.685C94.142 157.135 86.2441 159.354 76.2278 159.354C64.8783 159.354 55.7624 156.692 48.8557 151.352C42.1828 145.792 38.5113 138.01 37.8447 128H0.466797C1.13339 140.453 4.69668 151.457 11.1497 161.026C17.8226 170.372 26.7291 177.708 37.8552 183.045C48.9813 188.161 61.7792 190.719 76.2383 190.719C89.8074 190.719 101.823 188.384 112.283 183.711C122.966 178.818 131.195 172.145 136.978 163.7C142.985 155.03 145.989 144.906 145.989 133.34C145.989 119.998 142.765 109.545 136.312 101.986C130.082 94.2066 122.627 88.6435 113.951 85.3036L113.941 85.2861V85.2896ZM410.036 95.6933C410.036 116.099 403.601 135.012 392.659 150.507C395.769 153.617 398.753 157.292 401.43 161.626C411.376 177.796 410.458 202.77 397.818 222.607C384.074 244.165 357.745 258.816 318.406 258.816C308.006 258.816 294.056 257.396 280.103 253.344C266.339 249.348 250.77 242.27 239.173 229.702L237.162 227.532L265.054 200.163C269.801 204.459 278.466 211.209 291.093 215.512C293.997 216.503 304.226 219.421 318.396 219.421C347.527 219.421 359.647 209.139 364.572 201.437C367.517 196.813 368.561 192.314 368.725 188.761C368.805 187.051 368.833 185.673 368.446 184.273C367.818 181.977 366.533 180.364 365.856 179.534C365.057 178.539 364.275 177.824 363.703 177.352C349.418 185.906 332.701 190.827 314.843 190.827C262.273 190.827 219.66 148.235 219.66 95.6933C219.66 43.1513 262.283 0.559326 314.843 0.559326C367.402 0.559326 410.026 43.1513 410.026 95.6933H410.036ZM372.096 96.0528C372.096 64.4473 346.466 38.8377 314.853 38.8377C283.241 38.8377 257.61 64.4578 257.61 96.0528C257.61 127.648 283.244 153.268 314.853 153.268C346.462 153.268 372.096 127.648 372.096 96.0528ZM428.606 2.78944V34.8486H458.683L428.606 64.9115V188.747H466.033V2.78944H428.606Z" fill="#FFC863"/>
</svg>
