<svg width="33" height="33" viewBox="0 0 33 33" fill="none" xmlns="http://www.w3.org/2000/svg">
<path d="M16.0978 0.992621C7.71314 0.992621 0.916016 7.89937 0.916016 16.4193C0.916016 19.7248 1.93969 22.7872 3.6818 25.2979L1.43065 31.8459H16.0978C24.4824 31.8459 31.2795 24.9391 31.2795 16.4193C31.2795 7.89937 24.4824 0.992621 16.0978 0.992621Z" stroke="white" stroke-width="1.5" stroke-miterlimit="10"/>
<path d="M23.2326 19.2905L22.2392 18.7235C21.2973 18.2274 20.5651 18.0846 19.9272 18.7315L18.8002 19.9491C18.8002 19.9491 16.6626 19.4046 14.9624 17.6804C13.2656 15.9527 12.683 13.7452 12.683 13.7452L13.8114 12.5288C14.4481 11.8806 14.238 11.0658 13.8193 10.1794L13.2613 9.17005C12.8821 8.48389 12.1697 8.05063 11.3952 8.05227C11.3892 8.05227 11.3831 8.05233 11.3771 8.05233C10.7896 8.05691 10.121 8.30047 9.52792 8.90315C8.08038 10.3741 7.85046 12.3885 7.86487 14.0438C7.88912 16.837 9.61624 19.2978 11.4236 21.1343C13.2309 22.9708 15.6875 24.7609 18.4363 24.7857C20.0653 24.8003 22.0477 24.5551 23.4953 23.0842C24.0884 22.4815 24.3281 21.8022 24.3325 21.2052C24.3326 21.199 24.3326 21.1929 24.3326 21.1868C24.3342 20.3999 23.9079 19.6759 23.2326 19.2905Z" stroke="white" stroke-width="1.5" stroke-miterlimit="10"/>
</svg>
